<?xml version="1.0" standalone="no"?>
<!DOCTYPE svg PUBLIC "-//W3C//DTD SVG 20010904//EN"
 "http://www.w3.org/TR/2001/REC-SVG-20010904/DTD/svg10.dtd">
<svg version="1.0" xmlns="http://www.w3.org/2000/svg"
 width="1057.000000pt" height="1057.000000pt" viewBox="0 0 1057.000000 1057.000000"
 preserveAspectRatio="xMidYMid meet">
<metadata>
Created by potrace 1.14, written by Peter Selinger 2001-2017
</metadata>
<g transform="translate(0.000000,1057.000000) scale(0.100000,-0.100000)"
fill="#000000" stroke="none">
<path d="M5401 9941 c-6 -10 -8 -21 -5 -23 2 -3 -3 -38 -12 -79 -8 -41 -17
-83 -18 -94 -6 -43 -30 -147 -68 -300 -21 -88 -41 -167 -43 -175 -2 -8 -4 -15
-5 -15 -1 0 -3 -8 -5 -18 -5 -27 -70 -241 -107 -352 -11 -33 -21 -64 -23 -70
-1 -5 -5 -17 -8 -25 -3 -8 -23 -60 -42 -115 -20 -55 -42 -113 -49 -130 -19
-43 -61 -149 -62 -155 0 -3 -11 -27 -23 -55 -12 -27 -43 -97 -69 -155 -26 -58
-51 -108 -57 -112 -5 -4 -7 -8 -3 -8 9 0 -187 -386 -203 -400 -3 -3 -13 -23
-23 -45 -11 -22 -22 -42 -25 -45 -6 -5 -16 -21 -58 -99 -14 -25 -35 -59 -47
-76 -12 -16 -30 -47 -41 -67 -11 -21 -23 -38 -27 -38 -5 0 -8 -6 -8 -14 0 -8
-6 -21 -13 -28 -7 -7 -24 -31 -37 -53 -13 -22 -28 -44 -32 -50 -5 -5 -47 -66
-95 -135 -76 -110 -106 -152 -143 -197 -6 -7 -10 -17 -10 -23 0 -5 -4 -10 -10
-10 -5 0 -10 -6 -10 -14 0 -8 -4 -16 -8 -18 -7 -2 -166 -221 -205 -282 -7 -10
-17 -24 -22 -30 -6 -6 -28 -37 -50 -69 -22 -32 -52 -75 -67 -95 -15 -20 -32
-47 -38 -59 -5 -13 -14 -23 -19 -23 -5 0 -11 -8 -15 -17 -6 -19 -25 -50 -41
-68 -5 -7 -53 -76 -105 -156 -52 -79 -97 -146 -101 -149 -3 -3 -16 -23 -29
-45 -13 -22 -26 -42 -29 -45 -10 -9 -31 -45 -37 -62 -4 -10 -9 -18 -13 -18 -3
0 -17 -20 -31 -45 -14 -25 -28 -45 -32 -45 -5 0 -8 -4 -8 -9 0 -5 -29 -59 -65
-121 -91 -158 -183 -341 -254 -510 -34 -80 -66 -152 -70 -160 -5 -9 -12 -31
-16 -50 -4 -19 -10 -39 -14 -45 -7 -12 -30 -73 -35 -95 -2 -8 -13 -42 -24 -75
-22 -64 -44 -141 -48 -165 -2 -8 -10 -40 -19 -70 -8 -30 -17 -66 -20 -80 -2
-14 -10 -54 -19 -90 -8 -36 -18 -85 -21 -110 -3 -25 -8 -52 -10 -60 -8 -34
-19 -127 -30 -260 -8 -94 -8 -289 -1 -355 3 -27 8 -79 11 -115 6 -72 11 -109
31 -225 8 -48 18 -92 48 -215 15 -61 22 -84 42 -135 4 -11 8 -22 8 -25 4 -20
93 -247 105 -265 3 -5 6 -12 7 -15 1 -5 43 -91 82 -165 45 -87 232 -369 262
-395 4 -3 13 -15 21 -27 66 -97 358 -384 469 -463 38 -27 65 -48 85 -67 8 -7
18 -13 23 -13 5 0 17 -9 27 -20 10 -11 24 -20 32 -20 7 0 13 -3 13 -8 0 -4 20
-18 45 -32 25 -14 45 -27 45 -30 0 -3 15 -11 33 -19 17 -8 34 -17 37 -21 3 -4
34 -22 70 -40 36 -19 72 -39 80 -46 8 -7 17 -12 20 -12 3 0 37 -14 75 -32 119
-55 279 -120 296 -120 4 0 20 -5 36 -12 15 -6 33 -12 40 -14 7 -1 34 -9 60
-18 26 -9 57 -17 68 -19 11 -1 26 -6 33 -10 6 -5 12 -6 12 -3 0 2 15 0 33 -5
17 -5 43 -12 57 -14 14 -3 48 -9 75 -15 52 -11 72 -14 140 -24 77 -12 141 -18
196 -21 31 -1 60 -4 65 -7 13 -7 348 -2 429 6 184 19 305 39 439 72 34 9 68
17 76 18 8 2 22 6 30 9 8 3 40 13 70 22 30 9 64 20 75 24 11 5 65 26 120 47
55 21 102 42 103 46 2 5 10 8 18 8 35 0 392 206 434 250 3 3 18 14 33 23 16
10 37 26 49 35 49 41 58 49 93 77 52 41 251 240 300 299 22 26 45 53 50 60 6
6 24 29 40 51 17 22 32 42 35 45 3 3 19 25 35 50 17 25 33 46 38 48 4 2 7 10
7 18 0 8 5 14 10 14 6 0 10 7 10 15 0 8 4 15 9 15 5 0 11 8 15 18 5 16 12 28
48 83 10 14 15 29 11 33 -3 3 -2 6 4 6 12 0 163 302 163 325 0 4 7 21 14 38
25 55 65 177 58 177 -4 0 -2 4 4 8 10 6 62 183 79 270 3 12 8 34 11 50 3 15 7
34 8 42 1 8 5 29 9 45 14 66 31 201 44 335 14 155 6 726 -12 828 -5 29 -18
151 -19 175 0 9 -3 17 -6 17 -3 0 -5 10 -6 23 -1 33 -14 119 -20 129 -3 4 -7
20 -9 35 -7 49 -16 87 -31 138 -8 28 -15 52 -15 55 -2 6 -3 10 -24 80 -9 30
-19 62 -22 70 -3 8 -7 20 -8 25 -14 60 -173 404 -203 438 -8 9 -12 17 -9 17 4
0 -9 25 -28 55 -19 30 -35 59 -35 65 0 5 -4 10 -10 10 -5 0 -10 6 -10 14 0 8
-3 16 -7 18 -11 4 -73 96 -73 107 0 4 -9 16 -20 26 -11 10 -20 24 -20 32 0 7
-4 13 -8 13 -4 0 -15 12 -24 28 -10 15 -28 41 -42 57 -14 17 -30 35 -36 42 -5
7 -10 15 -10 17 0 3 -7 14 -15 23 -8 10 -37 47 -65 83 -28 36 -56 72 -63 80
-7 8 -120 150 -252 315 -132 165 -242 302 -245 305 -3 3 -28 34 -55 70 -27 36
-52 67 -55 70 -3 3 -34 46 -70 95 -35 50 -68 92 -72 93 -4 2 -8 10 -8 17 0 7
-4 15 -8 17 -12 5 -132 183 -132 196 0 7 -4 12 -8 12 -5 0 -15 12 -23 28 -8
15 -20 33 -26 40 -7 7 -13 20 -13 28 0 8 -5 14 -10 14 -6 0 -15 12 -20 26 -6
15 -19 38 -29 53 -10 14 -29 46 -43 71 -14 25 -36 63 -48 85 -42 73 -108 198
-179 340 -74 149 -104 213 -202 433 -35 78 -79 190 -79 201 0 6 -5 11 -12 11
-6 0 -9 3 -5 6 3 4 0 19 -9 35 -8 16 -14 31 -14 34 0 3 -6 20 -13 38 -8 17
-35 93 -61 167 -26 74 -52 143 -57 152 -5 10 -9 26 -9 36 0 10 -4 22 -8 27 -5
6 -14 30 -21 55 -8 25 -16 52 -19 60 -3 8 -7 20 -8 25 -1 6 -3 13 -4 18 -1 4
-4 12 -5 17 -1 6 -3 11 -5 13 -1 1 -3 9 -5 17 -3 8 -14 47 -25 85 -24 79 -86
317 -94 355 -4 24 -32 154 -42 195 -7 30 -15 88 -15 108 0 22 -6 22 -18 -2z"/>
</g>
</svg>
